<mxfile host="app.diagrams.net" modified="2023-06-09T18:22:32.753Z" agent="Mozilla/5.0 (Windows NT 10.0; Win64; x64) AppleWebKit/537.36 (KHTML, like Gecko) Chrome/114.0.0.0 Safari/537.36" etag="_ndLIUcVKsXzZqPtmBwf" version="21.3.7" type="device">
  <diagram name="PÃ¡gina-1" id="iMmdA9I17qQsJP0kGFiJ">
    <mxGraphModel dx="672" dy="578" grid="1" gridSize="10" guides="1" tooltips="1" connect="1" arrows="1" fold="1" page="1" pageScale="1" pageWidth="3300" pageHeight="2339" math="0" shadow="0">
      <root>
        <mxCell id="0" />
        <mxCell id="1" parent="0" />
        <mxCell id="_jqLtCzWALzeGwTVvQnN-1" value="Pessoa" style="swimlane;fontStyle=0;childLayout=stackLayout;horizontal=1;startSize=30;horizontalStack=0;resizeParent=1;resizeParentMax=0;resizeLast=0;collapsible=1;marginBottom=0;whiteSpace=wrap;html=1;" vertex="1" parent="1">
          <mxGeometry x="150" y="270" width="230" height="240" as="geometry" />
        </mxCell>
        <mxCell id="_jqLtCzWALzeGwTVvQnN-2" value="- nome: String;" style="text;strokeColor=none;fillColor=none;align=left;verticalAlign=middle;spacingLeft=4;spacingRight=4;overflow=hidden;points=[[0,0.5],[1,0.5]];portConstraint=eastwest;rotatable=0;whiteSpace=wrap;html=1;" vertex="1" parent="_jqLtCzWALzeGwTVvQnN-1">
          <mxGeometry y="30" width="230" height="30" as="geometry" />
        </mxCell>
        <mxCell id="_jqLtCzWALzeGwTVvQnN-3" value="- sobrenome: String;" style="text;strokeColor=none;fillColor=none;align=left;verticalAlign=middle;spacingLeft=4;spacingRight=4;overflow=hidden;points=[[0,0.5],[1,0.5]];portConstraint=eastwest;rotatable=0;whiteSpace=wrap;html=1;" vertex="1" parent="_jqLtCzWALzeGwTVvQnN-1">
          <mxGeometry y="60" width="230" height="30" as="geometry" />
        </mxCell>
        <mxCell id="_jqLtCzWALzeGwTVvQnN-4" value="- rg: String;" style="text;strokeColor=none;fillColor=none;align=left;verticalAlign=middle;spacingLeft=4;spacingRight=4;overflow=hidden;points=[[0,0.5],[1,0.5]];portConstraint=eastwest;rotatable=0;whiteSpace=wrap;html=1;" vertex="1" parent="_jqLtCzWALzeGwTVvQnN-1">
          <mxGeometry y="90" width="230" height="30" as="geometry" />
        </mxCell>
        <mxCell id="_jqLtCzWALzeGwTVvQnN-5" value="- idade: int;" style="text;strokeColor=none;fillColor=none;align=left;verticalAlign=middle;spacingLeft=4;spacingRight=4;overflow=hidden;points=[[0,0.5],[1,0.5]];portConstraint=eastwest;rotatable=0;whiteSpace=wrap;html=1;" vertex="1" parent="_jqLtCzWALzeGwTVvQnN-1">
          <mxGeometry y="120" width="230" height="30" as="geometry" />
        </mxCell>
        <mxCell id="_jqLtCzWALzeGwTVvQnN-6" value="&lt;br&gt;+ Pessoa(String nome, String sobrenome, String rg, Integer idade);&lt;br&gt;" style="text;strokeColor=default;fillColor=none;align=left;verticalAlign=middle;spacingLeft=4;spacingRight=4;overflow=hidden;points=[[0,0.5],[1,0.5]];portConstraint=eastwest;rotatable=0;whiteSpace=wrap;html=1;" vertex="1" parent="_jqLtCzWALzeGwTVvQnN-1">
          <mxGeometry y="150" width="230" height="90" as="geometry" />
        </mxCell>
        <mxCell id="_jqLtCzWALzeGwTVvQnN-7" value="Contrato" style="swimlane;fontStyle=0;childLayout=stackLayout;horizontal=1;startSize=30;horizontalStack=0;resizeParent=1;resizeParentMax=0;resizeLast=0;collapsible=1;marginBottom=0;whiteSpace=wrap;html=1;" vertex="1" parent="1">
          <mxGeometry x="520" y="270" width="220" height="270" as="geometry" />
        </mxCell>
        <mxCell id="_jqLtCzWALzeGwTVvQnN-8" value="- pessoa: Pessoa;" style="text;strokeColor=none;fillColor=none;align=left;verticalAlign=middle;spacingLeft=4;spacingRight=4;overflow=hidden;points=[[0,0.5],[1,0.5]];portConstraint=eastwest;rotatable=0;whiteSpace=wrap;html=1;" vertex="1" parent="_jqLtCzWALzeGwTVvQnN-7">
          <mxGeometry y="30" width="220" height="30" as="geometry" />
        </mxCell>
        <mxCell id="_jqLtCzWALzeGwTVvQnN-9" value="- duracaoEmMeses: Integer;" style="text;strokeColor=none;fillColor=none;align=left;verticalAlign=middle;spacingLeft=4;spacingRight=4;overflow=hidden;points=[[0,0.5],[1,0.5]];portConstraint=eastwest;rotatable=0;whiteSpace=wrap;html=1;" vertex="1" parent="_jqLtCzWALzeGwTVvQnN-7">
          <mxGeometry y="60" width="220" height="30" as="geometry" />
        </mxCell>
        <mxCell id="_jqLtCzWALzeGwTVvQnN-10" value="- dataInicioAtividade: LocalDate;" style="text;strokeColor=none;fillColor=none;align=left;verticalAlign=middle;spacingLeft=4;spacingRight=4;overflow=hidden;points=[[0,0.5],[1,0.5]];portConstraint=eastwest;rotatable=0;whiteSpace=wrap;html=1;" vertex="1" parent="_jqLtCzWALzeGwTVvQnN-7">
          <mxGeometry y="90" width="220" height="30" as="geometry" />
        </mxCell>
        <mxCell id="_jqLtCzWALzeGwTVvQnN-11" value="- estaRegistradoNoMinisterio: boolean;" style="text;strokeColor=none;fillColor=none;align=left;verticalAlign=middle;spacingLeft=4;spacingRight=4;overflow=hidden;points=[[0,0.5],[1,0.5]];portConstraint=eastwest;rotatable=0;whiteSpace=wrap;html=1;" vertex="1" parent="_jqLtCzWALzeGwTVvQnN-7">
          <mxGeometry y="120" width="220" height="30" as="geometry" />
        </mxCell>
        <mxCell id="_jqLtCzWALzeGwTVvQnN-23" value="&lt;br&gt;+ Contrato(Pessoa pessoa, Integer duracaoEmMeses, LocalDate dataInicioAtividade, boolean estaRegistradoNoMinisterio);&lt;br&gt;&lt;br&gt;+ adicionarAoTrabalho: String;" style="text;strokeColor=default;fillColor=none;align=left;verticalAlign=middle;spacingLeft=4;spacingRight=4;overflow=hidden;points=[[0,0.5],[1,0.5]];portConstraint=eastwest;rotatable=0;whiteSpace=wrap;html=1;" vertex="1" parent="_jqLtCzWALzeGwTVvQnN-7">
          <mxGeometry y="150" width="220" height="120" as="geometry" />
        </mxCell>
        <mxCell id="_jqLtCzWALzeGwTVvQnN-12" style="edgeStyle=orthogonalEdgeStyle;rounded=0;orthogonalLoop=1;jettySize=auto;html=1;exitX=1;exitY=0.5;exitDx=0;exitDy=0;entryX=0;entryY=0.5;entryDx=0;entryDy=0;" edge="1" parent="1" source="_jqLtCzWALzeGwTVvQnN-4" target="_jqLtCzWALzeGwTVvQnN-10">
          <mxGeometry relative="1" as="geometry" />
        </mxCell>
        <mxCell id="_jqLtCzWALzeGwTVvQnN-13" value="1" style="text;html=1;strokeColor=none;fillColor=none;align=center;verticalAlign=middle;whiteSpace=wrap;rounded=0;" vertex="1" parent="1">
          <mxGeometry x="370" y="320" width="60" height="30" as="geometry" />
        </mxCell>
        <mxCell id="_jqLtCzWALzeGwTVvQnN-14" value="1" style="text;html=1;strokeColor=none;fillColor=none;align=center;verticalAlign=middle;whiteSpace=wrap;rounded=0;" vertex="1" parent="1">
          <mxGeometry x="470" y="320" width="60" height="30" as="geometry" />
        </mxCell>
        <mxCell id="_jqLtCzWALzeGwTVvQnN-30" style="edgeStyle=orthogonalEdgeStyle;rounded=0;orthogonalLoop=1;jettySize=auto;html=1;exitX=0.75;exitY=0;exitDx=0;exitDy=0;entryX=0.465;entryY=0.999;entryDx=0;entryDy=0;entryPerimeter=0;" edge="1" parent="1" source="_jqLtCzWALzeGwTVvQnN-15" target="_jqLtCzWALzeGwTVvQnN-23">
          <mxGeometry relative="1" as="geometry" />
        </mxCell>
        <mxCell id="_jqLtCzWALzeGwTVvQnN-15" value="ContratoHoritas" style="swimlane;fontStyle=0;childLayout=stackLayout;horizontal=1;startSize=30;horizontalStack=0;resizeParent=1;resizeParentMax=0;resizeLast=0;collapsible=1;marginBottom=0;whiteSpace=wrap;html=1;" vertex="1" parent="1">
          <mxGeometry x="360" y="590" width="310" height="210" as="geometry" />
        </mxCell>
        <mxCell id="_jqLtCzWALzeGwTVvQnN-16" value="- horasPorMes: Integer;" style="text;strokeColor=none;fillColor=none;align=left;verticalAlign=middle;spacingLeft=4;spacingRight=4;overflow=hidden;points=[[0,0.5],[1,0.5]];portConstraint=eastwest;rotatable=0;whiteSpace=wrap;html=1;" vertex="1" parent="_jqLtCzWALzeGwTVvQnN-15">
          <mxGeometry y="30" width="310" height="30" as="geometry" />
        </mxCell>
        <mxCell id="_jqLtCzWALzeGwTVvQnN-17" value="- valorPorHora: double;&lt;br&gt;&lt;br&gt;- valorTotal: double;&lt;br&gt;" style="text;strokeColor=none;fillColor=none;align=left;verticalAlign=middle;spacingLeft=4;spacingRight=4;overflow=hidden;points=[[0,0.5],[1,0.5]];portConstraint=eastwest;rotatable=0;whiteSpace=wrap;html=1;" vertex="1" parent="_jqLtCzWALzeGwTVvQnN-15">
          <mxGeometry y="60" width="310" height="50" as="geometry" />
        </mxCell>
        <mxCell id="_jqLtCzWALzeGwTVvQnN-24" value="" style="text;strokeColor=none;fillColor=none;align=left;verticalAlign=middle;spacingLeft=4;spacingRight=4;overflow=hidden;points=[[0,0.5],[1,0.5]];portConstraint=eastwest;rotatable=0;whiteSpace=wrap;html=1;" vertex="1" parent="_jqLtCzWALzeGwTVvQnN-15">
          <mxGeometry y="110" width="310" as="geometry" />
        </mxCell>
        <mxCell id="_jqLtCzWALzeGwTVvQnN-40" value="+ compareTo(ContratoHoritas o): int;&lt;br&gt;&lt;br&gt;+ calcularValorContratado(): String;&lt;br&gt;&lt;br&gt;+ compararDuracaoContrato(ContratoHoritas o): String;" style="text;strokeColor=default;fillColor=none;align=left;verticalAlign=middle;spacingLeft=4;spacingRight=4;overflow=hidden;points=[[0,0.5],[1,0.5]];portConstraint=eastwest;rotatable=0;whiteSpace=wrap;html=1;" vertex="1" parent="_jqLtCzWALzeGwTVvQnN-15">
          <mxGeometry y="110" width="310" height="100" as="geometry" />
        </mxCell>
        <mxCell id="_jqLtCzWALzeGwTVvQnN-39" style="edgeStyle=orthogonalEdgeStyle;rounded=0;orthogonalLoop=1;jettySize=auto;html=1;exitX=0.5;exitY=0;exitDx=0;exitDy=0;entryX=0.464;entryY=1.007;entryDx=0;entryDy=0;entryPerimeter=0;endArrow=none;endFill=0;" edge="1" parent="1" source="_jqLtCzWALzeGwTVvQnN-19" target="_jqLtCzWALzeGwTVvQnN-23">
          <mxGeometry relative="1" as="geometry" />
        </mxCell>
        <mxCell id="_jqLtCzWALzeGwTVvQnN-19" value="ContratoMensal" style="swimlane;fontStyle=0;childLayout=stackLayout;horizontal=1;startSize=30;horizontalStack=0;resizeParent=1;resizeParentMax=0;resizeLast=0;collapsible=1;marginBottom=0;whiteSpace=wrap;html=1;" vertex="1" parent="1">
          <mxGeometry x="700" y="590" width="140" height="150" as="geometry" />
        </mxCell>
        <mxCell id="_jqLtCzWALzeGwTVvQnN-20" value="- salarioMensal: double;" style="text;strokeColor=none;fillColor=none;align=left;verticalAlign=middle;spacingLeft=4;spacingRight=4;overflow=hidden;points=[[0,0.5],[1,0.5]];portConstraint=eastwest;rotatable=0;whiteSpace=wrap;html=1;" vertex="1" parent="_jqLtCzWALzeGwTVvQnN-19">
          <mxGeometry y="30" width="140" height="30" as="geometry" />
        </mxCell>
        <mxCell id="_jqLtCzWALzeGwTVvQnN-21" value="- totalDeHoras: Integer;" style="text;strokeColor=none;fillColor=none;align=left;verticalAlign=middle;spacingLeft=4;spacingRight=4;overflow=hidden;points=[[0,0.5],[1,0.5]];portConstraint=eastwest;rotatable=0;whiteSpace=wrap;html=1;" vertex="1" parent="_jqLtCzWALzeGwTVvQnN-19">
          <mxGeometry y="60" width="140" height="30" as="geometry" />
        </mxCell>
        <mxCell id="_jqLtCzWALzeGwTVvQnN-22" value="- cargo: String;" style="text;strokeColor=none;fillColor=none;align=left;verticalAlign=middle;spacingLeft=4;spacingRight=4;overflow=hidden;points=[[0,0.5],[1,0.5]];portConstraint=eastwest;rotatable=0;whiteSpace=wrap;html=1;" vertex="1" parent="_jqLtCzWALzeGwTVvQnN-19">
          <mxGeometry y="90" width="140" height="30" as="geometry" />
        </mxCell>
        <mxCell id="_jqLtCzWALzeGwTVvQnN-25" value="+ isChefe(): boolean;" style="text;strokeColor=default;fillColor=none;align=left;verticalAlign=middle;spacingLeft=4;spacingRight=4;overflow=hidden;points=[[0,0.5],[1,0.5]];portConstraint=eastwest;rotatable=0;whiteSpace=wrap;html=1;" vertex="1" parent="_jqLtCzWALzeGwTVvQnN-19">
          <mxGeometry y="120" width="140" height="30" as="geometry" />
        </mxCell>
      </root>
    </mxGraphModel>
  </diagram>
</mxfile>
